<svg xmlns="http://www.w3.org/2000/svg" version="1.1" xmlns:xlink="http://www.w3.org/1999/xlink" xmlns:svgjs="http://svgjs.dev/svgjs" width="1000" height="191" viewBox="0 0 1000 191"><g transform="matrix(1,0,0,1,-0.6060606060606233,-0.505137775185915)"><svg viewBox="0 0 396 76" data-background-color="#ffffff" preserveAspectRatio="xMidYMid meet" height="191" width="1000" xmlns="http://www.w3.org/2000/svg" xmlns:xlink="http://www.w3.org/1999/xlink"><g id="tight-bounds" transform="matrix(1,0,0,1,0.2400000000000091,0.20099722991690783)"><svg viewBox="0 0 395.52 75.5980055401662" height="75.5980055401662" width="395.52"><g><svg viewBox="0 0 395.52 75.5980055401662" height="75.5980055401662" width="395.52"><g><svg viewBox="0 0 395.52 75.5980055401662" height="75.5980055401662" width="395.52"><g><svg viewBox="0 0 395.52 75.5980055401662" height="75.5980055401662" width="395.52"><g><svg viewBox="0 0 395.52 75.5980055401662" height="75.5980055401662" width="395.52"><g transform="matrix(1,0,0,1,0,0)"><svg width="395.52" viewBox="0.7 -33.4 180.49 34.5" height="75.5980055401662" data-palette-color="#000000"><path d="M28.45-8.7Q27.7-6.45 25.48-4.17 23.25-1.9 19.88-0.43 16.5 1.05 12.5 1.05L12.5 1.05Q6.4 1.05 3.55-1.93 0.7-4.9 0.7-9.55L0.7-9.55Q0.7-16.15 3.65-21.53 6.6-26.9 11.6-29.98 16.6-33.05 22.4-33.05L22.4-33.05Q24.7-33.05 26.6-32 28.5-30.95 29.6-28.98 30.7-27 30.7-24.35L30.7-24.35Q30.7-22.85 29.58-21.8 28.45-20.75 26.55-20.75L26.55-20.75Q25.05-20.75 24.53-21.55 24-22.35 24-23.6L24-23.6 24.05-25.2Q24.05-26.1 23.05-26.95 22.05-27.8 21.2-27.8L21.2-27.8Q18.4-27.8 15.05-25.28 11.7-22.75 9.4-18.48 7.1-14.2 7.1-9.2L7.1-9.2Q7.1-6.9 8.9-5.45 10.7-4 13.45-4L13.45-4Q14.35-4 15.8-4.6 17.25-5.2 18.48-6.1 19.7-7 20.1-7.85L20.1-7.85Q20.7-9.1 21.8-10.65 22.9-12.2 24-12.2L24-12.2Q26.55-12.2 27.48-11.1 28.4-10 28.45-8.7L28.45-8.7ZM52.15-6.35Q54.1-5.5 54.1-4.05L54.1-4.05Q54.1-3.15 53.2-2.3 52.3-1.45 51.15-1.1L51.15-1.1Q48.4-0.8 47.25-0.75L47.25-0.75Q40.55-0.2 37.8 0.3L37.8 0.3Q37.35 0.6 35.9 0.6L35.9 0.6Q34.5 0.6 33.42-0.7 32.35-2 32.35-3.4L32.35-3.4Q32.35-3.95 32.5-4.45L32.5-4.45 38.9-29.75Q39.45-31.95 40.07-32.68 40.7-33.4 42.35-33.4L42.35-33.4Q43.7-33.4 44.67-33.1 45.65-32.8 45.7-32.2L45.7-32.2Q45.7-30.8 39.25-5L39.25-5Q43.65-5.75 50.45-6.2L50.45-6.2 52.15-6.35ZM60.05-29.55Q60.59-31.75 61.22-32.48 61.84-33.2 63.5-33.2L63.5-33.2Q64.84-33.2 65.82-32.9 66.8-32.6 66.84-32L66.84-32Q67.09-31.85 67.09-31.2L67.09-31.2Q67.09-30.15 66.55-28 66-25.85 64.95-22.4L64.95-22.4Q63.75-18.25 63-15.35 62.25-12.45 62.05-10.4L62.05-10.4 62-9.7Q62-7.7 63-6.43 64-5.15 65.45-4.58 66.9-4 68.3-4L68.3-4Q71.5-4 73.34-5.48 75.2-6.95 76.17-9.53 77.15-12.1 78-16.55L78-16.55Q78.45-18.8 79.4-23.05 80.34-27.3 80.65-28.2L80.65-28.2Q81.09-29.5 81.2-30.2L81.2-30.2Q81.5-31.35 81.82-31.95 82.15-32.55 82.84-33L82.84-33Q83.05-33.05 83.4-33.13 83.75-33.2 83.95-33.2L83.95-33.2Q85.65-33.2 86.77-32.9 87.9-32.6 88.09-32.15L88.09-32.15Q87.34-29.2 86.02-23.38 84.7-17.55 84.09-14.15L84.09-14.15Q81.34 1.05 67.59 1.05L67.59 1.05Q64.09 1.05 61.34-0.35 58.59-1.75 57.02-4.23 55.45-6.7 55.45-9.85L55.45-9.85Q55.45-11.45 55.9-13.15L55.9-13.15 60.05-29.55ZM100.99-3Q100.59-1.25 99.77-0.3 98.94 0.65 97.09 0.65L97.09 0.65Q95.54 0.65 94.82 0.13 94.09-0.4 94.09-1.65L94.09-1.65Q94.09-2.2 94.24-2.7L94.24-2.7 100.34-26.9Q100.29-26.9 97.09-26.55L97.09-26.55Q93.24-26.25 92.29-26.05L92.29-26.05Q91.29-26.4 90.77-27.13 90.24-27.85 90.24-28.85L90.24-28.85Q90.24-29.65 90.82-30.38 91.39-31.1 92.19-31.45L92.19-31.45Q94.69-31.95 99.19-32.3 103.69-32.65 110.74-33.05L110.74-33.05Q114.34-33.2 115.59-33.35L115.59-33.35Q116.39-33 116.97-32.27 117.54-31.55 117.54-30.75L117.54-30.75Q117.54-29.85 116.64-29 115.74-28.15 114.59-27.8L114.59-27.8 105.84-27.35Q106.39-27.15 106.39-26L106.39-26Q106.39-25.4 106.29-25.1L106.29-25.1Q105.44-21.3 103.97-15.25 102.49-9.2 101.99-7.05L101.99-7.05Q101.69-5.8 101.44-4.8 101.19-3.8 100.99-3L100.99-3ZM143.64-8.7Q142.89-6.45 140.67-4.17 138.44-1.9 135.06-0.43 131.69 1.05 127.69 1.05L127.69 1.05Q121.59 1.05 118.74-1.93 115.89-4.9 115.89-9.55L115.89-9.55Q115.89-16.15 118.84-21.53 121.79-26.9 126.79-29.98 131.79-33.05 137.59-33.05L137.59-33.05Q139.89-33.05 141.79-32 143.69-30.95 144.79-28.98 145.89-27 145.89-24.35L145.89-24.35Q145.89-22.85 144.77-21.8 143.64-20.75 141.74-20.75L141.74-20.75Q140.24-20.75 139.72-21.55 139.19-22.35 139.19-23.6L139.19-23.6 139.24-25.2Q139.24-26.1 138.24-26.95 137.24-27.8 136.39-27.8L136.39-27.8Q133.59-27.8 130.24-25.28 126.89-22.75 124.59-18.48 122.29-14.2 122.29-9.2L122.29-9.2Q122.29-6.9 124.09-5.45 125.89-4 128.64-4L128.64-4Q129.54-4 130.99-4.6 132.44-5.2 133.67-6.1 134.89-7 135.29-7.85L135.29-7.85Q135.89-9.1 136.99-10.65 138.09-12.2 139.19-12.2L139.19-12.2Q141.74-12.2 142.67-11.1 143.59-10 143.64-8.7L143.64-8.7ZM170.64-14.6Q160.79-13.4 156.69-12.5L156.69-12.5 153.99-1.8Q153.64-0.35 152.96 0.15 152.29 0.65 150.29 0.65L150.29 0.65Q148.74 0.65 148.01 0.13 147.29-0.4 147.29-1.65L147.29-1.65Q147.29-2.2 147.44-2.7L147.44-2.7 154.29-29.75Q154.84-31.95 155.46-32.68 156.09-33.4 157.74-33.4L157.74-33.4Q159.09-33.4 160.21-33.1 161.34-32.8 161.39-32.2L161.39-32.2Q161.39-32.1 160.74-29.5L160.74-29.5Q159.74-25.65 157.89-17.8L157.89-17.8Q165.29-19.3 171.94-19.85L171.94-19.85 174.24-29.15Q174.74-31.15 175.61-32.13 176.49-33.1 177.99-33.4L177.99-33.4Q179.84-33.05 180.41-32.83 180.99-32.6 181.19-32.15L181.19-32.15Q180.54-30.3 180.21-28.73 179.89-27.15 179.84-26.85L179.84-26.85Q179.19-23.35 178.29-19.7L178.29-19.7Q180.24-18.85 180.24-17.4L180.24-17.4Q180.24-15.95 177.14-14.95L177.14-14.95Q176.59-12.95 175.09-6.25L175.09-6.25Q174.74-4.4 174.09-1.65L174.09-1.65Q173.39 1.1 171.89 1.1L171.89 1.1Q167.29 1.1 167.29-1.05L167.29-1.05Q167.29-1.5 170.64-14.6L170.64-14.6Z" opacity="1" transform="matrix(1,0,0,1,0,0)" fill="#000000" class="undefined-text-0" data-fill-palette-color="primary" id="text-0"></path></svg></g></svg></g></svg></g></svg></g><g></g></svg></g><defs></defs></svg><rect width="395.52" height="75.5980055401662" fill="none" stroke="none" visibility="hidden"></rect></g></svg></g></svg>