<svg xmlns="http://www.w3.org/2000/svg" version="1.1" xmlns:xlink="http://www.w3.org/1999/xlink" xmlns:svgjs="http://svgjs.dev/svgjs" width="1000" height="179" viewBox="0 0 1000 179"><g transform="matrix(1,0,0,1,-0.6060606060606801,-0.49304378572696805)"><svg viewBox="0 0 396 71" data-background-color="#ffffff" preserveAspectRatio="xMidYMid meet" height="179" width="1000" xmlns="http://www.w3.org/2000/svg" xmlns:xlink="http://www.w3.org/1999/xlink"><g id="tight-bounds" transform="matrix(1,0,0,1,0.24000000000003752,0.19556485355650466)"><svg viewBox="0 0 395.5199999999999 70.60887029288702" height="70.60887029288702" width="395.5199999999999"><g><svg viewBox="0 0 395.5199999999999 70.60887029288702" height="70.60887029288702" width="395.5199999999999"><g><svg viewBox="0 0 395.5199999999999 70.60887029288702" height="70.60887029288702" width="395.5199999999999"><g><svg viewBox="0 0 395.5199999999999 70.60887029288702" height="70.60887029288702" width="395.5199999999999"><g><svg viewBox="0 0 395.5199999999999 70.60887029288702" height="70.60887029288702" width="395.5199999999999"><g transform="matrix(1,0,0,1,0,0)"><svg width="395.5199999999999" viewBox="2.5 -31.9 179.24 32" height="70.60887029288702" data-palette-color="#ffffff"><path d="M28-27.75Q28.75-26.85 29.05-26.3 29.35-25.75 29.35-25.25L29.35-25.25Q29.35-24.65 28.58-23.85 27.8-23.05 27.05-23.05L27.05-23.05Q26.05-23.05 25.45-23.35 24.85-23.65 24.45-24.3L24.45-24.3Q23.65-25.5 22.5-26.38 21.35-27.25 18.9-27.25L18.9-27.25Q16.8-27.25 14.13-26.3 11.45-25.35 10.3-23.95L10.3-23.95Q9.3-22.7 8.58-20.15 7.85-17.6 7.85-15.2L7.85-15.2Q7.85-12.3 9.13-9.88 10.4-7.45 12.83-6 15.25-4.55 18.65-4.55L18.65-4.55Q20.5-4.55 22.48-5.28 24.45-6 25.9-7.65L25.9-7.65 25.85-7.65Q26.75-8.6 28.1-8.6L28.1-8.6Q28.9-8.6 29.63-7.9 30.35-7.2 30.35-6.5L30.35-6.5Q30.35-5.75 30.13-5.18 29.9-4.6 29.3-3.9L29.3-3.9Q27.25-1.6 24.45-0.75 21.65 0.1 17.75 0.1L17.75 0.1Q14.3 0.1 10.78-1.55 7.25-3.2 5.35-5.55L5.35-5.55Q4.35-7 3.43-9.73 2.5-12.45 2.5-14.15L2.5-14.15Q2.5-18.5 3.83-22.43 5.15-26.35 7.8-28.7L7.8-28.7Q9.55-30.3 12.85-31.1 16.15-31.9 18.9-31.9L18.9-31.9Q22.25-31.9 24.18-30.98 26.1-30.05 28-27.75L28-27.75ZM38.3-31.75Q39.25-31.75 40.02-31.25 40.8-30.75 40.95-29.5L40.95-29.5Q41.55-25.55 41.72-21.63 41.9-17.7 41.9-12.75L41.9-12.75Q41.9-10.65 41.55-5.1L41.55-5.1Q43.75-4.9 44.95-4.9L44.95-4.9Q45.8-4.9 48.8-5.15L48.8-5.15Q50.55-5.4 51.85-5.4L51.85-5.4Q53.05-5.4 54.05-5.18 55.05-4.95 56.1-4.45L56.1-4.45Q57.15-3.85 57.15-2.6L57.15-2.6Q57.15-1.6 56.52-0.8 55.9 0 55.05 0L55.05 0Q54.45 0 53.15-0.2L53.15-0.2Q50.8-0.55 48.65-0.55L48.65-0.55Q47.95-0.55 47.07-0.48 46.2-0.4 45.8-0.4L45.8-0.4Q44.6-0.25 43.4-0.25L43.4-0.25Q40.95-0.25 39-0.5L39-0.5Q38-0.6 37-1.28 36-1.95 36-3.25L36-3.25Q36-4 36.2-7.1L36.2-7.1Q36.55-12.25 36.55-14.95L36.55-14.95Q36.55-17.05 36.35-19.35 36.15-21.65 36.1-22.25L36.1-22.25Q35.65-26.5 35.65-29.25L35.65-29.25Q35.65-30.55 36.27-31.15 36.9-31.75 38.3-31.75L38.3-31.75ZM66.25-29Q66.25-27.55 66.15-25.15L66.15-25.15 66.09-21.9Q66.09-17.15 66.8-13.95L66.8-13.95Q67.8-9.45 69.8-7L69.8-7Q71.65-4.85 74.34-4.85L74.34-4.85Q76.45-4.85 78.09-6.13 79.75-7.4 80.65-9.3L80.65-9.3Q82.15-12.4 82.15-16.95L82.15-16.95Q82.15-19.7 81.8-23.45L81.8-23.45Q81.5-27.65 81.5-29.75L81.5-29.75Q81.5-30.85 82.8-31.18 84.09-31.5 85.5-31.5L85.5-31.5Q86-31.5 86.65-30.85 87.3-30.2 87.3-29.45L87.3-29.45Q87.3-27.95 87.15-26.6L87.15-26.6Q87.05-25.1 87.05-24.5L87.05-24.5Q87.05-22.6 87.25-19.2L87.25-19.2Q87.3-18.35 87.34-17.15 87.4-15.95 87.4-14.4L87.4-14.4Q87.4-11 85.77-7.63 84.15-4.25 81.25-2.08 78.34 0.1 74.7 0.1L74.7 0.1Q69.09 0.1 65.95-3.53 62.8-7.15 61.65-12.9L61.65-12.9Q61-16.2 60.82-19.8 60.65-23.4 60.65-29.45L60.65-29.45Q60.65-30.25 61.42-30.95 62.2-31.65 63.1-31.65L63.1-31.65Q66.25-31.65 66.25-29L66.25-29ZM91.09-29.15Q91.09-31.3 94.24-31.3L94.24-31.3Q95.59-31.3 99.39-31.2L99.39-31.2Q103.59-31 105.74-31L105.74-31Q107.49-31 109.99-31.2L109.99-31.2Q111.69-31.3 112.14-31.3L112.14-31.3Q114.89-31.2 116.79-30.3L116.79-30.3Q117.34-30.05 117.69-29.7 118.04-29.35 118.04-28.55L118.04-28.55Q118.04-27.45 117.34-26.68 116.64-25.9 115.64-25.9L115.64-25.9Q114.54-25.9 112.44-26.2L112.44-26.2Q110.59-26.55 109.19-26.55L109.19-26.55Q107.84-26.55 107.14-26.5L107.14-26.5Q106.99-24.85 106.99-18.6L106.99-18.6Q106.99-11.15 107.44-3.5L107.44-3.5 107.54-2.05Q107.54 0 105.19 0L105.19 0Q103.34 0 102.69-0.88 102.04-1.75 102.04-3.55L102.04-3.55Q102.04-7.1 101.84-12.4L101.84-12.4Q101.64-16.8 101.64-18.65L101.64-18.65Q101.64-19.9 101.94-26.3L101.94-26.3 96.09-26.25Q93.29-26.25 92.19-26.78 91.09-27.3 91.09-29.15L91.09-29.15ZM146.59-27.75Q147.34-26.85 147.64-26.3 147.94-25.75 147.94-25.25L147.94-25.25Q147.94-24.65 147.17-23.85 146.39-23.05 145.64-23.05L145.64-23.05Q144.64-23.05 144.04-23.35 143.44-23.65 143.04-24.3L143.04-24.3Q142.24-25.5 141.09-26.38 139.94-27.25 137.49-27.25L137.49-27.25Q135.39-27.25 132.72-26.3 130.04-25.35 128.89-23.95L128.89-23.95Q127.89-22.7 127.17-20.15 126.44-17.6 126.44-15.2L126.44-15.2Q126.44-12.3 127.72-9.88 128.99-7.45 131.41-6 133.84-4.55 137.24-4.55L137.24-4.55Q139.09-4.55 141.06-5.28 143.04-6 144.49-7.65L144.49-7.65 144.44-7.65Q145.34-8.6 146.69-8.6L146.69-8.6Q147.49-8.6 148.22-7.9 148.94-7.2 148.94-6.5L148.94-6.5Q148.94-5.75 148.72-5.18 148.49-4.6 147.89-3.9L147.89-3.9Q145.84-1.6 143.04-0.75 140.24 0.1 136.34 0.1L136.34 0.1Q132.89 0.1 129.37-1.55 125.84-3.2 123.94-5.55L123.94-5.55Q122.94-7 122.02-9.73 121.09-12.45 121.09-14.15L121.09-14.15Q121.09-18.5 122.42-22.43 123.74-26.35 126.39-28.7L126.39-28.7Q128.14-30.3 131.44-31.1 134.74-31.9 137.49-31.9L137.49-31.9Q140.84-31.9 142.77-30.98 144.69-30.05 146.59-27.75L146.59-27.75ZM176.39-17.9Q176.34-18.7 176.34-20.3L176.34-20.3 176.34-22.2Q176.34-24.1 176.24-25.05L176.24-25.05Q176.14-25.85 176.14-29.2L176.14-29.2Q176.14-30.4 176.86-31.08 177.59-31.75 178.84-31.75L178.84-31.75Q180.44-31.75 180.99-31.05 181.54-30.35 181.54-28.75L181.54-28.75 181.54-26.85 181.49-21.35Q181.44-19.75 181.44-16.55L181.44-16.55 181.49-12.45Q181.54-11.5 181.54-9.8L181.54-9.8Q181.54-8.45 181.64-5.95L181.64-5.95Q181.74-3.65 181.74-2.5L181.74-2.5Q181.74-1.55 181.21-0.75 180.69 0.05 179.79 0.05L179.79 0.05Q176.29 0.05 176.29-2.3L176.29-2.3Q176.29-3.6 176.39-5.2L176.39-5.2Q176.49-6.35 176.49-8.7L176.49-8.7Q176.49-10.35 176.39-13.45L176.39-13.45Q174.04-13.25 168.29-13.25L168.29-13.25Q164.69-13.25 162.69-13.28 160.69-13.3 159.79-13.5L159.79-13.5 159.74-7.75Q159.74-7.2 159.99-4.8L159.99-4.8Q160.24-3.2 160.24-2L160.24-2Q160.24-1.25 159.36-0.58 158.49 0.1 157.74 0.1L157.74 0.1Q155.94 0.1 155.29-0.78 154.64-1.65 154.64-3.45L154.64-3.45 154.59-7.4Q154.54-8.1 154.54-9.35L154.54-9.35Q154.54-11.2 154.44-14.4L154.44-14.4Q154.34-17.3 154.34-18.6L154.34-18.6Q154.34-20.55 154.44-24.05L154.44-24.05Q154.54-27.35 154.54-28.95L154.54-28.95Q154.54-30.55 155.34-31.1 156.14-31.65 157.14-31.65L157.14-31.65Q159.94-31.65 159.94-29.8L159.94-29.8Q159.94-26.5 159.79-23.5L159.79-23.5Q159.69-19.7 159.69-17.95L159.69-17.95Q161.14-17.6 162.74-17.5 164.34-17.4 167.24-17.4L167.24-17.4Q173.14-17.4 176.39-17.9L176.39-17.9Z" opacity="1" transform="matrix(1,0,0,1,0,0)" fill="#ffffff" class="undefined-text-0" data-fill-palette-color="primary" id="text-0"></path></svg></g></svg></g></svg></g></svg></g><g></g></svg></g><defs></defs></svg><rect width="395.5199999999999" height="70.60887029288702" fill="none" stroke="none" visibility="hidden"></rect></g></svg></g></svg>